<svg xmlns="http://www.w3.org/2000/svg" xmlns:xlink="http://www.w3.org/1999/xlink" version="1.1" width="256" height="256" viewBox="0 0 256 256" xml:space="preserve">
<g style="stroke: none; stroke-width: 0; stroke-dasharray: none; stroke-linecap: butt; stroke-linejoin: miter; stroke-miterlimit: 10; fill: none; fill-rule: nonzero; opacity: 1;" transform="translate(1.4065934065934016 1.4065934065934016) scale(2.81 2.81)">
	<path d="M 85.426 32.268 H 4.574 C 2.048 32.268 0 30.22 0 27.694 V 11.379 c 0 -2.526 2.048 -4.574 4.574 -4.574 h 80.851 c 2.526 0 4.574 2.048 4.574 4.574 v 16.314 C 90 30.22 87.952 32.268 85.426 32.268 z" style="stroke: none; stroke-width: 1; stroke-dasharray: none; stroke-linecap: butt; stroke-linejoin: miter; stroke-miterlimit: 10; fill: rgb(122,140,152); fill-rule: nonzero; opacity: 1;" transform=" matrix(1 0 0 1 0 0) " stroke-linecap="round"/>
	<circle cx="74.86000000000001" cy="19.54" r="5.57" style="stroke: none; stroke-width: 1; stroke-dasharray: none; stroke-linecap: butt; stroke-linejoin: miter; stroke-miterlimit: 10; fill: rgb(96,183,255); fill-rule: nonzero; opacity: 1;" transform="  matrix(1 0 0 1 0 0) "/>
	<path d="M 85.426 57.732 H 4.574 C 2.048 57.732 0 55.684 0 53.157 V 36.843 c 0 -2.526 2.048 -4.574 4.574 -4.574 h 80.851 c 2.526 0 4.574 2.048 4.574 4.574 v 16.314 C 90 55.684 87.952 57.732 85.426 57.732 z" style="stroke: none; stroke-width: 1; stroke-dasharray: none; stroke-linecap: butt; stroke-linejoin: miter; stroke-miterlimit: 10; fill: rgb(122,140,152); fill-rule: nonzero; opacity: 1;" transform=" matrix(1 0 0 1 0 0) " stroke-linecap="round"/>
	<circle cx="74.86000000000001" cy="45" r="5.57" style="stroke: none; stroke-width: 1; stroke-dasharray: none; stroke-linecap: butt; stroke-linejoin: miter; stroke-miterlimit: 10; fill: rgb(96,183,255); fill-rule: nonzero; opacity: 1;" transform="  matrix(1 0 0 1 0 0) "/>
	<path d="M 85.426 83.195 H 4.574 C 2.048 83.195 0 81.147 0 78.621 V 62.306 c 0 -2.526 2.048 -4.574 4.574 -4.574 h 80.851 c 2.526 0 4.574 2.048 4.574 4.574 v 16.314 C 90 81.147 87.952 83.195 85.426 83.195 z" style="stroke: none; stroke-width: 1; stroke-dasharray: none; stroke-linecap: butt; stroke-linejoin: miter; stroke-miterlimit: 10; fill: rgb(122,140,152); fill-rule: nonzero; opacity: 1;" transform=" matrix(1 0 0 1 0 0) " stroke-linecap="round"/>
	<path d="M 85.426 32.268 H 4.574 C 2.048 32.268 0 34.316 0 36.843 v 4.091 c 0 -2.526 2.048 -4.574 4.574 -4.574 h 80.851 c 2.526 0 4.574 2.048 4.574 4.574 v -4.091 C 90 34.316 87.952 32.268 85.426 32.268 z" style="stroke: none; stroke-width: 1; stroke-dasharray: none; stroke-linecap: butt; stroke-linejoin: miter; stroke-miterlimit: 10; fill: rgb(103,120,131); fill-rule: nonzero; opacity: 1;" transform=" matrix(1 0 0 1 0 0) " stroke-linecap="round"/>
	<path d="M 85.426 57.732 H 4.574 C 2.048 57.732 0 59.78 0 62.306 v 4.091 c 0 -2.526 2.048 -4.574 4.574 -4.574 h 80.851 c 2.526 0 4.574 2.048 4.574 4.574 v -4.091 C 90 59.78 87.952 57.732 85.426 57.732 z" style="stroke: none; stroke-width: 1; stroke-dasharray: none; stroke-linecap: butt; stroke-linejoin: miter; stroke-miterlimit: 10; fill: rgb(103,120,131); fill-rule: nonzero; opacity: 1;" transform=" matrix(1 0 0 1 0 0) " stroke-linecap="round"/>
	<circle cx="74.86000000000001" cy="70.46000000000001" r="5.57" style="stroke: none; stroke-width: 1; stroke-dasharray: none; stroke-linecap: butt; stroke-linejoin: miter; stroke-miterlimit: 10; fill: rgb(96,183,255); fill-rule: nonzero; opacity: 1;" transform="  matrix(1 0 0 1 0 0) "/>
	<path d="M 46.066 16.287 h -36.5 c -0.552 0 -1 -0.448 -1 -1 s 0.448 -1 1 -1 h 36.5 c 0.553 0 1 0.448 1 1 S 46.619 16.287 46.066 16.287 z" style="stroke: none; stroke-width: 1; stroke-dasharray: none; stroke-linecap: butt; stroke-linejoin: miter; stroke-miterlimit: 10; fill: rgb(171,186,197); fill-rule: nonzero; opacity: 1;" transform=" matrix(1 0 0 1 0 0) " stroke-linecap="round"/>
	<path d="M 46.066 24.787 h -36.5 c -0.552 0 -1 -0.448 -1 -1 s 0.448 -1 1 -1 h 36.5 c 0.553 0 1 0.448 1 1 S 46.619 24.787 46.066 24.787 z" style="stroke: none; stroke-width: 1; stroke-dasharray: none; stroke-linecap: butt; stroke-linejoin: miter; stroke-miterlimit: 10; fill: rgb(171,186,197); fill-rule: nonzero; opacity: 1;" transform=" matrix(1 0 0 1 0 0) " stroke-linecap="round"/>
	<path d="M 46.066 41.75 h -36.5 c -0.552 0 -1 -0.448 -1 -1 s 0.448 -1 1 -1 h 36.5 c 0.553 0 1 0.448 1 1 S 46.619 41.75 46.066 41.75 z" style="stroke: none; stroke-width: 1; stroke-dasharray: none; stroke-linecap: butt; stroke-linejoin: miter; stroke-miterlimit: 10; fill: rgb(171,186,197); fill-rule: nonzero; opacity: 1;" transform=" matrix(1 0 0 1 0 0) " stroke-linecap="round"/>
	<path d="M 46.066 50.25 h -36.5 c -0.552 0 -1 -0.447 -1 -1 s 0.448 -1 1 -1 h 36.5 c 0.553 0 1 0.447 1 1 S 46.619 50.25 46.066 50.25 z" style="stroke: none; stroke-width: 1; stroke-dasharray: none; stroke-linecap: butt; stroke-linejoin: miter; stroke-miterlimit: 10; fill: rgb(171,186,197); fill-rule: nonzero; opacity: 1;" transform=" matrix(1 0 0 1 0 0) " stroke-linecap="round"/>
	<path d="M 46.066 67.214 h -36.5 c -0.552 0 -1 -0.447 -1 -1 s 0.448 -1 1 -1 h 36.5 c 0.553 0 1 0.447 1 1 S 46.619 67.214 46.066 67.214 z" style="stroke: none; stroke-width: 1; stroke-dasharray: none; stroke-linecap: butt; stroke-linejoin: miter; stroke-miterlimit: 10; fill: rgb(171,186,197); fill-rule: nonzero; opacity: 1;" transform=" matrix(1 0 0 1 0 0) " stroke-linecap="round"/>
	<path d="M 46.066 75.713 h -36.5 c -0.552 0 -1 -0.447 -1 -1 s 0.448 -1 1 -1 h 36.5 c 0.553 0 1 0.447 1 1 S 46.619 75.713 46.066 75.713 z" style="stroke: none; stroke-width: 1; stroke-dasharray: none; stroke-linecap: butt; stroke-linejoin: miter; stroke-miterlimit: 10; fill: rgb(171,186,197); fill-rule: nonzero; opacity: 1;" transform=" matrix(1 0 0 1 0 0) " stroke-linecap="round"/>
</g>
</svg>
